<svg id="Logo_PET_branca" data-name="Logo PET branca" xmlns="http://www.w3.org/2000/svg" width="20.048" height="24.478" viewBox="0 0 20.048 24.478">
  <g id="Group_3" data-name="Group 3">
    <path id="Path_1" data-name="Path 1" d="M55.375,278.464h2.156a1.732,1.732,0,0,0,1.685,1.245,1.71,1.71,0,0,0,1.744-1.673,1.686,1.686,0,0,0-1.3-1.616v-2.052a1.686,1.686,0,0,0,1.3-1.615,1.746,1.746,0,0,0-3.489,0,1.686,1.686,0,0,0,1.3,1.615v2.052a1.71,1.71,0,0,0-1.239,1.188H55.375a1.733,1.733,0,0,0-1.685-1.245,1.71,1.71,0,0,0-1.744,1.673,1.686,1.686,0,0,0,1.3,1.615V281.7a1.654,1.654,0,0,0,0,3.231v2.052a1.71,1.71,0,0,0-1.239,1.188h-2.14a1.71,1.71,0,0,0-1.239-1.188v-2.052a1.686,1.686,0,0,0,1.3-1.615,1.71,1.71,0,0,0-1.744-1.673,1.732,1.732,0,0,0-1.685,1.245H44.341a1.733,1.733,0,0,0-1.685-1.245,1.674,1.674,0,1,0,0,3.346,1.732,1.732,0,0,0,1.685-1.245H46.5a1.71,1.71,0,0,0,1.239,1.188v2.052a1.654,1.654,0,0,0,0,3.231v2.052a1.686,1.686,0,0,0-1.3,1.616,1.746,1.746,0,0,0,3.489,0,1.686,1.686,0,0,0-1.3-1.616v-2.052a1.71,1.71,0,0,0,1.239-1.188h2.14a1.732,1.732,0,0,0,1.685,1.245,1.71,1.71,0,0,0,1.744-1.673,1.686,1.686,0,0,0-1.3-1.616v-2.052a1.71,1.71,0,0,0,1.239-1.188h2.156a1.732,1.732,0,0,0,1.685,1.245,1.674,1.674,0,1,0,0-3.346,1.732,1.732,0,0,0-1.685,1.245H55.375a1.71,1.71,0,0,0-1.239-1.188v-2.052A1.71,1.71,0,0,0,55.375,278.464Z" transform="translate(-40.912 -271.081)"/>
  </g>
</svg>
